<svg xmlns="http://www.w3.org/2000/svg" width="1600.003" height="1600.003" fill-rule="evenodd" clip-rule="evenodd" image-rendering="optimizeQuality" shape-rendering="geometricPrecision" text-rendering="geometricPrecision" viewBox="0 0 16666.66 16666.66"><rect width="16666.66" height="16666.66" fill="none"/><path fill="#fbcdc2" fill-rule="nonzero" d="M9661.49 7321.84l16.53 5.91c41.64,11.39 86.5,16.77 131.34,15.07 86.23,-3.2 167.35,-31.74 252.74,-43.51 29.52,-4.03 60.74,-5.49 90.88,-6.98 53.55,-2.68 245.38,27.19 293.79,37.85 102.66,22.68 115.4,25.73 216.59,53.06 47.06,12.75 115.02,56.61 161.73,73.24 70.67,25.39 90.78,123.87 39.69,124.12 -38.72,0.14 -37.37,3.3 -71.92,-19.35 -34.69,-22.68 -164.92,-74.39 -164.92,-74.39 42.65,9.45 132.45,48.17 164.92,74.39 33.2,26.95 74.84,36.6 94.46,79.74 6.25,13.72 21.67,19.72 25.98,38.48 4.41,18.86 2.43,38.72 -10.56,53.17 -18.75,20.94 -44.35,16.77 -68.48,9.06 -57.2,-18.02 -107.06,-55.63 -156.2,-88.31 -45.22,-30.15 -78.04,-77.58 -127.42,-101.58 72.79,35.28 144.81,108.56 203.75,161.83 23.65,21.46 72.16,60.77 98.48,78.9 32.85,22.78 52.93,90.19 2.46,121.3 -44.35,27.3 -120.78,-22.43 -150.33,-50.35 -38.96,-36.88 -101.19,-76.47 -137.8,-114.43 -17.16,-17.89 -33.72,-34.21 -52.93,-49.87 -34.56,-28.06 -63.24,-59.04 -101.33,-82.58 0,0 157.66,133.91 215,203.74 28.44,34.56 68.48,84.28 40.46,126.3 -50.49,75.84 -125.85,6.98 -159.05,-23.27 -44.83,-40.94 -94.8,-72.3 -138.52,-115.64 -67.27,-66.92 -144.57,-120.68 -225.94,-168.7 -40.28,-23.65 -89.91,-12.99 -132.56,-28.69 21.22,23.3 56.99,24.76 79.53,45.94 27.43,25.87 54.14,47.3 86.37,69.98 36.74,25.94 70.18,57.33 81.47,101.54 10.91,42.4 15.66,87.34 -35.91,98.14 -74.84,15.56 -133.91,-39.59 -187.43,-82.83 -59.66,-48.13 -118.73,-104.74 -199.2,-113.8 -31.01,-3.44 -64.7,0.1 -95.81,0.1 -85.54,-0.24 -164.05,10.07 -249.8,-5.14 -60.04,-10.52 -108.8,-41.15 -138.8,-93.49 -25,-43.48 -51.57,-82.79 -66.16,-130.96 -4.65,-15.42 -53.06,-149.08 -67.16,-144.67 101.58,-32.47 178.88,-105.36 274.31,-148.84 42.51,-19.37 59.42,20.21 80.98,46.78 20.59,25.25 54.28,54.42 86.75,68.72z"/><path fill="#b0ddd3" fill-rule="nonzero" d="M9666.39 7173.62l-329.43 576.02c0,0 -1514,-650.17 -1837.42,-946.63 -323.31,-296.46 -640.96,-1044.28 -743.02,-1792.07 -59.52,-436.28 425.48,-470.69 425.48,-470.69 279.94,445.69 825.36,1624.13 886,1711.71 60.63,87.62 1598.39,921.66 1598.39,921.66z"/><path fill="#2c2a43" fill-rule="nonzero" d="M5314.47 13517.57c0 0-88.1 256.63-88.97 455.1-.73 198.46 13.61 409.43 74.39 459.3 121.65 99.6 1660.97 112.59 1786.2-29.66 125.33-142.21 41.78-372.31-284.24-451.8-349.5-85.26-516.36 14.34-736.39-69.21-219.93-83.56-48.65-394.02-48.65-394.02l-702.33 30.28zM3815.68 14354.91c-125.47-38.83-253.61-55.5-384.43-59.8-94.84-3.06-246.01 1.84-314.87-74.7-65.67-73.03-55.74-176.56-15.42-258.02 5.39-10.91 79.98-147 94.22-140.89l-609.15-263.16c0 0-479.97 572.13-437.7 723.58 8.68 31.36 128.98 146.76 255.56 264.1 211.94 196.52 486.22 312.3 774.87 328.21 412.98 22.92 826.58 15.8 893.08-51.08 133.67-134.26 64.31-368.98-256.15-468.23z"/><path fill="#268ccb" fill-rule="nonzero" d="M4136.14 7112.99c0,0 -773.9,471.53 -652.6,1401.25 121.27,929.86 383.7,2119.3 319.87,2361.87 -63.83,242.57 -1431.53,2744.26 -1431.53,2744.26l769 428.64c0,0 1622.77,-2633.82 1703.62,-2916.85 80.85,-282.99 114.53,-1966.02 114.53,-1966.02 0,0 953.26,1605.09 1003.86,1827.45 50.49,222.36 -763,2626.77 -763,2626.77l818.49 149.08c0,0 1109.71,-2468.83 1045.99,-2883.16 -39.8,-259.34 -1010.57,-2755.99 -1010.57,-2755.99l-1917.67 -1017.3z"/><path fill="#5d94c2" fill-rule="nonzero" d="M5951.13 10956.47l-0.73 -1.7 0 0.73c-3.06,-8.33 -6.49,-17.4 -10.42,-27.05 4.17,10.04 7.85,19.48 11.15,28.02zm-164.89 -339.32c-252.85,-472.19 -700.63,-1218.27 -827.07,-1450.77 9.55,16.04 540.53,910.72 827.07,1450.77z"/><path fill="#2674b9" fill-rule="nonzero" d="M5951.75 10958.2l-0.62 -1.74c-3.3,-8.54 -6.98,-17.99 -11.15,-28.02 -29.28,-72.06 -84.15,-181.31 -153.74,-311.3 -286.54,-540.05 -817.52,-1434.72 -827.07,-1450.77 0,-0.14 -0.14,-0.14 -0.14,-0.24 0,0 206.21,-836.89 280.21,-1275.6 22.16,15.07 45.91,27.33 70.05,38.61 -26.32,224.68 -235.21,779.39 -129.6,974.94 85.88,159.12 364.95,671.59 439.58,782.47 109.53,162.67 352.59,1224.48 331.37,1266.85l1.11 4.79z"/><path fill="#fbcdc2" fill-rule="nonzero" d="M6712.66 3498.19c0,0 -292.3,637.8 -522.61,761.78 0,0 271.71,484.27 879.99,313 0,0 -23.65,-248.09 183.01,-791.4 0,0 -401.59,-112.1 -540.39,-283.38z"/><path fill="#e7a192" fill-rule="nonzero" d="M7117.2 4147.73l16.43 1.98c27.06,-103.17 64.91,-224.68 119.43,-368.14 0,0 -401.59,-112.1 -540.39,-283.38 0,0 -292.3,637.8 -522.61,761.78 0,0 113.31,200.03 355.75,297.33 72.79,-242.95 302.47,-414.57 571.4,-409.57z"/><path fill="#fbcdc2" fill-rule="nonzero" d="M7607.34 2287.53c0,0 413.5,177.18 401.62,366.06 -11.77,189.06 10.38,158.04 -20.59,282.02 -31.01,123.98 -57.72,217.12 -35.53,372.07 22.16,154.99 16.53,230.31 -144.57,190.51 0,0 -52.44,-26.6 -48.03,37.61 4.41,64.18 24.38,445.07 -299.04,458.44 -323.31,13.23 -819.35,-478.41 -792.75,-686.56 26.56,-208.12 84.14,-686.52 310.04,-912.46 225.8,-225.76 519.69,-161.93 628.84,-107.69z"/><path fill="#2c2a43" fill-rule="nonzero" d="M7133.73 2137.09c0,0 460.62,873.98 1145.72,478.41 0,0 0,-372.07 -330.78,-590.61 -330.67,-218.44 -765.08,-53.06 -814.94,112.2z"/><path fill="#2c2a43" fill-rule="nonzero" d="M7774.94 3494.89c-431.83,-127.17 -495.28,-306.78 -489.41,-660.58 5.87,-353.8 112.2,-381.51 112.2,-381.51 262.81,-88.56 271.64,-217.08 271.64,-217.08 194.89,-522.85 -983.27,-589.01 -1002.02,-230.2 -18.61,358.73 27.68,230.35 -251.39,500.45 -279.07,270.28 -150.58,531.57 -26.6,673.33 123.98,141.76 -115.15,119.56 -128.39,371.93 -9.41,179.61 97.41,256.56 259.72,311.68 28.17,9.44 127.04,-232.29 171.76,-321.96 8.44,50.35 200.41,335.18 323.9,429.65 287.3,219.65 620.54,185.96 709.09,2.95 88.69,-183.05 49.49,-478.65 49.49,-478.65z"/><path fill="#ffce72" fill-rule="nonzero" d="M14520.99 11088.78c0,1979.04 -1604.4,3583.44 -3583.54,3583.44 -1979.04,0 -3583.44,-1604.4 -3583.44,-3583.44 0,-1979.15 1604.4,-3583.4 3583.44,-3583.4 1979.14,0 3583.54,1604.26 3583.54,3583.4z"/><path fill="#faaa41" fill-rule="nonzero" d="M13862.25 11088.78c0,1615.2 -1309.54,2924.7 -2924.8,2924.7 -1615.2,0 -2924.7,-1309.5 -2924.7,-2924.7 0,-1615.27 1309.5,-2924.66 2924.7,-2924.66 1615.27,0 2924.8,1309.39 2924.8,2924.66z"/><path fill="#ffce72" fill-rule="nonzero" d="M10589.27 9583.14c586.82,-181.56 1202.68,-142.59 1430.42,425.86l-947.98 379.29c-91.02,-212.95 -329.91,-170.93 -468.37,-115.4 -86.96,34.76 -368.63,147.48 -299.04,321.57 155.82,389.33 1740.88,-714.48 2181.67,386.89 264.48,660.79 -154.5,1113.85 -771.33,1413.99l321.96 685.69 -578.73 231.8 -247.36 -721.6c-613.67,174.33 -1272.51,117.24 -1510.32,-477.19l947.74 -379.29 8.09 20.49c109.67,259.2 422.18,193.68 570.68,134.26 143.7,-57.57 421.41,-180.34 345.22,-369.98 -161.83,-404.78 -1761.09,663.4 -2187.68,-402.21 -245.87,-614.74 136.24,-1041.33 704.93,-1328.11l-318.76 -692.81 578.87 -231.67 240 718.4z"/><path fill="#fbcdc2" fill-rule="nonzero" d="M9013.03 7779.3c21.81,11.39 42.75,19.48 66.15,26.46 41.92,12.61 84.18,27.19 127.9,31.5 37.99,3.68 78.8,-0.97 117.72,-0.14 58.93,1.22 118.25,-2.92 176.07,-14.58 126.79,-25.35 228.96,-59.18 359.32,-65.05l26.71 -0.73c154.12,-1.7 302.58,20.7 446.8,74.49 67.48,25.24 179.47,57.19 170.27,149.95 -4.17,41.39 -36.39,48.13 -72.51,46.43 -64.94,-3.2 -145.54,-22.92 -205.1,-46.57 -72.65,-28.89 -209.23,-100.08 -209.23,-100.08 0,0 129.12,45.56 183.88,83.45 35.67,24.62 61.74,37.37 89.07,56.09 38.72,26.36 96.3,50.49 105.12,97.89 7.81,41.64 8.57,75.7 -37.51,93.59 -55.49,21.32 -157.66,-26.46 -204.33,-55.35 -44.1,-27.23 -244.9,-158.04 -307.89,-185.13 63.48,27.33 231.67,145.44 259.73,167.11 34.07,26.36 69.83,47.78 92.62,86.12 23.06,38.58 13.23,97.17 -36.74,105.99 -44.97,8.06 -93,-5.52 -134.39,-17.78 -77.55,-22.92 -146.52,-66.78 -213.92,-110.26 -61.74,-39.8 -118.8,-96.78 -189.75,-120.05 41.05,13.47 114.67,64.56 146.65,89.67 68.34,53.65 143.8,102.93 160.96,130.61 19.38,31.11 7.61,115.64 -63.1,113.8 -37.85,-0.97 -82.2,-14.93 -113.67,-29.76 -41.29,-19.38 -83.55,-39.45 -123.87,-61.26 -69.94,-38.09 -108.18,-95.43 -193.19,-99.11 -62.47,-2.71 -126.06,14.83 -183.29,39.07 -38.96,16.67 -76.81,38.48 -118.7,46.81 -20.59,4.03 -42.02,6.98 -63.1,10.66 -131.69,23.17 -275.91,-29.17 -372.42,-117.97 -30.28,-27.95 -51.12,-62.37 -78.55,-92.51 -19.24,-21.32 -91.13,-68.83 -92.37,-100.33 -0.73,-21.32 60.28,-77.55 75.84,-93.49 32.96,-33.3 56.47,-70.43 85.39,-106.09 35.63,-43.96 63.34,-86.71 109.29,-121.27 19.34,-14.59 17.89,-14.72 42.99,-5.14 17.16,6.74 35.77,13.09 52.93,20.94 41.64,19.1 76.57,50.11 118.21,72.02z"/><path fill="#b0ddd3" fill-rule="nonzero" d="M7081.53 4397.66c0,0 -565.98,349.78 -731.01,-286.08 0,0 -479.86,25.14 -1096.34,868.98 -613.91,840.19 -889.43,1263.2 -1531.26,2302.59 94.35,104.84 1160.65,1224.35 2420.56,934.76 0,0 124.6,-275.91 179.71,-405.03 237.57,-556.19 874.5,-2073.98 947.15,-2524.08 101.06,-626.9 -188.81,-891.14 -188.81,-891.14z"/><path fill="#79cbc2" fill-rule="nonzero" d="M6706.55 6074.47c58.31,-290.01 -112.59,-1837.42 -643.91,-1456.78 -300.29,215.24 -361.89,735.18 -271.01,1215.18 114.67,605.19 255.8,1158.82 548.38,1948.76 123.25,-280.43 333.7,-768.27 518.58,-1241.64 -119.32,-106.58 -191.97,-267.05 -152.04,-465.52z"/><path fill="#b0ddd3" fill-rule="nonzero" d="M9099.4 7729.43l-328.45 616.48c0,0 -1903.92,-760.91 -2220.25,-1052.48 -316.3,-291.71 -1080.89,-2599.16 -333.11,-2841.74 747.82,-242.57 934.51,2164.38 1098.18,2312.59 163.67,148.25 1783.63,965.14 1783.63,965.14z"/></svg>